<?xml version="1.0" ?><svg height="512px" id="Layer_1" style="enable-background:new 0 0 512 512;" version="1.1" viewBox="0 0 512 512" width="512px" xml:space="preserve" xmlns="http://www.w3.org/2000/svg" xmlns:cc="http://creativecommons.org/ns#" xmlns:dc="http://purl.org/dc/elements/1.1/" xmlns:inkscape="http://www.inkscape.org/namespaces/inkscape" xmlns:rdf="http://www.w3.org/1999/02/22-rdf-syntax-ns#" xmlns:sodipodi="http://sodipodi.sourceforge.net/DTD/sodipodi-0.dtd" xmlns:svg="http://www.w3.org/2000/svg"><defs id="defs19"/><g id="g3021"/><g id="Layer_1_1_"/><g id="Layer_1_1_-7" transform="translate(-819.672,-61.929991)"/><g id="g2989"><rect height="512" id="rect2989" rx="70" ry="70" style="fill:#00aff0;fill-opacity:1;stroke:none" transform="scale(-1,-1)" width="512" x="-512" y="-512"/><path d="m 255.1568,94.653864 c -8.82109,0 -17.46923,0.735138 -25.88493,2.136112 C 214.18294,86.814005 196.22565,81 176.89981,81 123.90635,81 81,124.56032 81,178.30883 c 0,19.55664 5.67313,37.72481 15.44235,52.97939 -1.31586,8.33436 -1.98856,16.86915 -1.98856,25.56415 0,89.58966 71.92553,162.20752 160.70232,162.20752 10.0194,0 19.77427,-0.98896 29.25501,-2.72703 C 299.14254,425.6049 316.49486,431 335.09677,431 388.07655,431 431,387.42859 431,333.68561 c -0.003,-20.31607 -6.12499,-39.20483 -16.64274,-54.82005 0.96111,-7.21289 1.51416,-14.54577 1.51416,-22.01041 0,-89.5758 -71.96246,-162.201286 -160.71462,-162.201286 z M 178.54905,300.70999 c 19.92719,-1.35717 31.89227,23.03534 42.52781,29.82062 10.62255,6.76016 51.04145,22.16172 72.39123,-2.72694 23.24794,-27.09368 -15.4603,-41.11363 -43.8334,-45.35757 -40.5106,-6.1168 -91.65743,-28.46481 -87.67841,-72.50495 3.98038,-44.01222 36.66432,-66.57866 71.06102,-69.76196 43.84572,-4.05902 72.38918,6.77342 94.96585,26.41822 26.10544,22.69832 11.98013,48.07334 -4.65232,50.11506 -16.56677,2.02987 -35.17402,-37.3344 -71.70492,-37.92613 -37.6531,-0.60284 -63.10096,39.956 -16.61808,51.48552 46.50682,11.51699 96.31044,16.24869 114.24572,59.60289 17.94763,43.35839 -27.88656,89.40395 -79.04708,92.12184 -51.11878,2.71509 -75.04003,-8.81793 -96.95365,-29.78923 -24.47277,-23.42332 -14.64192,-50.13949 5.29623,-51.49737 z" id="Oval-1-7" style="fill:#ffffff;stroke:none"/></g></svg>